solid solidlens
  facet normal 0.000000e+00 0.000000e+00 0.000000e+00
    outer loop
      vertex -8.000000e-01 -8.000000e-01 0.000000e+00
      vertex 8.000000e-01 8.000000e-01 0.000000e+00
      vertex 8.000000e-01 -8.000000e-01 0.000000e+00
    endloop
  endfacet
  facet normal 0.000000e+00 0.000000e+00 0.000000e+00
    outer loop
      vertex -8.000000e-01 -8.000000e-01 0.000000e+00
      vertex -8.000000e-01 8.000000e-01 0.000000e+00
      vertex 8.000000e-01 8.000000e-01 0.000000e+00
    endloop
  endfacet
  facet normal 0.000000e+00 0.000000e+00 0.000000e+00
    outer loop
      vertex -8.000000e-01 -8.000000e-01 0.000000e+00
      vertex 8.000000e-01 -8.000000e-01 0.000000e+00
      vertex 0.000000e+00 0.000000e+00 1.600000e+00
    endloop
  endfacet
  facet normal 0.000000e+00 0.000000e+00 0.000000e+00
    outer loop
      vertex 8.000000e-01 -8.000000e-01 0.000000e+00
      vertex 8.000000e-01 8.000000e-01 0.000000e+00
      vertex 0.000000e+00 0.000000e+00 1.600000e+00
    endloop
  endfacet
  facet normal 0.000000e+00 0.000000e+00 0.000000e+00
    outer loop
      vertex 8.000000e-01 8.000000e-01 0.000000e+00
      vertex -8.000000e-01 8.000000e-01 0.000000e+00
      vertex 0.000000e+00 0.000000e+00 1.600000e+00
    endloop
  endfacet
  facet normal 0.000000e+00 0.000000e+00 0.000000e+00
    outer loop
      vertex -8.000000e-01 8.000000e-01 0.000000e+00
      vertex -8.000000e-01 -8.000000e-01 0.000000e+00
      vertex 0.000000e+00 0.000000e+00 1.600000e+00
    endloop
  endfacet
endsolid solidlens
