solid solidlens
  facet normal 0.000000e+00 0.000000e+00 0.000000e+00
    outer loop
      vertex -7.200000e-01 -7.200000e-01 8.000000e-02
      vertex 7.200000e-01 7.200000e-01 8.000000e-02
      vertex 7.200000e-01 -7.200000e-01 8.000000e-02
    endloop
  endfacet
  facet normal 0.000000e+00 0.000000e+00 0.000000e+00
    outer loop
      vertex -7.200000e-01 -7.200000e-01 8.000000e-02
      vertex -7.200000e-01 7.200000e-01 8.000000e-02
      vertex 7.200000e-01 7.200000e-01 8.000000e-02
    endloop
  endfacet
  facet normal 0.000000e+00 0.000000e+00 0.000000e+00
    outer loop
      vertex -7.200000e-01 -7.200000e-01 2.120000e+00
      vertex 7.200000e-01 -7.200000e-01 2.120000e+00
      vertex 7.200000e-01 7.200000e-01 2.120000e+00
    endloop
  endfacet
  facet normal 0.000000e+00 0.000000e+00 0.000000e+00
    outer loop
      vertex -7.200000e-01 -7.200000e-01 2.120000e+00
      vertex 7.200000e-01 7.200000e-01 2.120000e+00
      vertex -7.200000e-01 7.200000e-01 2.120000e+00
    endloop
  endfacet
  facet normal 0.000000e+00 0.000000e+00 0.000000e+00
    outer loop
      vertex -7.200000e-01 -7.200000e-01 8.000000e-02
      vertex 7.200000e-01 -7.200000e-01 8.000000e-02
      vertex 7.200000e-01 -7.200000e-01 2.120000e+00
    endloop
  endfacet
  facet normal 0.000000e+00 0.000000e+00 0.000000e+00
    outer loop
      vertex -7.200000e-01 -7.200000e-01 8.000000e-02
      vertex 7.200000e-01 -7.200000e-01 2.120000e+00
      vertex -7.200000e-01 -7.200000e-01 2.120000e+00
    endloop
  endfacet
  facet normal 0.000000e+00 0.000000e+00 0.000000e+00
    outer loop
      vertex 7.200000e-01 -7.200000e-01 8.000000e-02
      vertex 7.200000e-01 7.200000e-01 8.000000e-02
      vertex 7.200000e-01 7.200000e-01 2.120000e+00
    endloop
  endfacet
  facet normal 0.000000e+00 0.000000e+00 0.000000e+00
    outer loop
      vertex 7.200000e-01 -7.200000e-01 8.000000e-02
      vertex 7.200000e-01 7.200000e-01 2.120000e+00
      vertex 7.200000e-01 -7.200000e-01 2.120000e+00
    endloop
  endfacet
  facet normal 0.000000e+00 0.000000e+00 0.000000e+00
    outer loop
      vertex 7.200000e-01 7.200000e-01 8.000000e-02
      vertex -7.200000e-01 7.200000e-01 8.000000e-02
      vertex -7.200000e-01 7.200000e-01 2.120000e+00
    endloop
  endfacet
  facet normal 0.000000e+00 0.000000e+00 0.000000e+00
    outer loop
      vertex 7.200000e-01 7.200000e-01 8.000000e-02
      vertex -7.200000e-01 7.200000e-01 2.120000e+00
      vertex 7.200000e-01 7.200000e-01 2.120000e+00
    endloop
  endfacet
  facet normal 0.000000e+00 0.000000e+00 0.000000e+00
    outer loop
      vertex -7.200000e-01 7.200000e-01 8.000000e-02
      vertex -7.200000e-01 -7.200000e-01 8.000000e-02
      vertex -7.200000e-01 -7.200000e-01 2.120000e+00
    endloop
  endfacet
  facet normal 0.000000e+00 0.000000e+00 0.000000e+00
    outer loop
      vertex -7.200000e-01 7.200000e-01 8.000000e-02
      vertex -7.200000e-01 -7.200000e-01 2.120000e+00
      vertex -7.200000e-01 7.200000e-01 2.120000e+00
    endloop
  endfacet
endsolid solidlens
