solid solidlens
  facet normal 0.000000e+00 0.000000e+00 0.000000e+00
    outer loop
      vertex 3.180000e+00 0.000000e+00 0.000000e+00
      vertex 3.011935e+00 5.172510e-01 0.000000e+00
      vertex 3.180000e+00 0.000000e+00 2.500000e+00
    endloop
  endfacet
  facet normal 0.000000e+00 0.000000e+00 0.000000e+00
    outer loop
      vertex 3.180000e+00 0.000000e+00 2.500000e+00
      vertex 3.011935e+00 5.172510e-01 0.000000e+00
      vertex 3.011935e+00 5.172510e-01 2.500000e+00
    endloop
  endfacet
  facet normal 0.000000e+00 0.000000e+00 0.000000e+00
    outer loop
      vertex 2.300000e+00 0.000000e+00 0.000000e+00
      vertex 3.011935e+00 5.172510e-01 0.000000e+00
      vertex 3.180000e+00 0.000000e+00 0.000000e+00
    endloop
  endfacet
  facet normal 0.000000e+00 0.000000e+00 0.000000e+00
    outer loop
      vertex 2.300000e+00 0.000000e+00 2.500000e+00
      vertex 3.180000e+00 0.000000e+00 2.500000e+00
      vertex 3.011935e+00 5.172510e-01 2.500000e+00
    endloop
  endfacet
  facet normal 0.000000e+00 0.000000e+00 0.000000e+00
    outer loop
      vertex 3.011935e+00 5.172510e-01 0.000000e+00
      vertex 2.571935e+00 8.369297e-01 0.000000e+00
      vertex 3.011935e+00 5.172510e-01 2.500000e+00
    endloop
  endfacet
  facet normal 0.000000e+00 0.000000e+00 0.000000e+00
    outer loop
      vertex 3.011935e+00 5.172510e-01 2.500000e+00
      vertex 2.571935e+00 8.369297e-01 0.000000e+00
      vertex 2.571935e+00 8.369297e-01 2.500000e+00
    endloop
  endfacet
  facet normal 0.000000e+00 0.000000e+00 0.000000e+00
    outer loop
      vertex 2.300000e+00 0.000000e+00 0.000000e+00
      vertex 2.571935e+00 8.369297e-01 0.000000e+00
      vertex 3.011935e+00 5.172510e-01 0.000000e+00
    endloop
  endfacet
  facet normal 0.000000e+00 0.000000e+00 0.000000e+00
    outer loop
      vertex 2.300000e+00 0.000000e+00 2.500000e+00
      vertex 3.011935e+00 5.172510e-01 2.500000e+00
      vertex 2.571935e+00 8.369297e-01 2.500000e+00
    endloop
  endfacet
  facet normal 0.000000e+00 0.000000e+00 0.000000e+00
    outer loop
      vertex 2.571935e+00 8.369297e-01 0.000000e+00
      vertex 2.028065e+00 8.369297e-01 0.000000e+00
      vertex 2.571935e+00 8.369297e-01 2.500000e+00
    endloop
  endfacet
  facet normal 0.000000e+00 0.000000e+00 0.000000e+00
    outer loop
      vertex 2.571935e+00 8.369297e-01 2.500000e+00
      vertex 2.028065e+00 8.369297e-01 0.000000e+00
      vertex 2.028065e+00 8.369297e-01 2.500000e+00
    endloop
  endfacet
  facet normal 0.000000e+00 0.000000e+00 0.000000e+00
    outer loop
      vertex 2.300000e+00 0.000000e+00 0.000000e+00
      vertex 2.028065e+00 8.369297e-01 0.000000e+00
      vertex 2.571935e+00 8.369297e-01 0.000000e+00
    endloop
  endfacet
  facet normal 0.000000e+00 0.000000e+00 0.000000e+00
    outer loop
      vertex 2.300000e+00 0.000000e+00 2.500000e+00
      vertex 2.571935e+00 8.369297e-01 2.500000e+00
      vertex 2.028065e+00 8.369297e-01 2.500000e+00
    endloop
  endfacet
  facet normal 0.000000e+00 0.000000e+00 0.000000e+00
    outer loop
      vertex 2.028065e+00 8.369297e-01 0.000000e+00
      vertex 1.588065e+00 5.172510e-01 0.000000e+00
      vertex 2.028065e+00 8.369297e-01 2.500000e+00
    endloop
  endfacet
  facet normal 0.000000e+00 0.000000e+00 0.000000e+00
    outer loop
      vertex 2.028065e+00 8.369297e-01 2.500000e+00
      vertex 1.588065e+00 5.172510e-01 0.000000e+00
      vertex 1.588065e+00 5.172510e-01 2.500000e+00
    endloop
  endfacet
  facet normal 0.000000e+00 0.000000e+00 0.000000e+00
    outer loop
      vertex 2.300000e+00 0.000000e+00 0.000000e+00
      vertex 1.588065e+00 5.172510e-01 0.000000e+00
      vertex 2.028065e+00 8.369297e-01 0.000000e+00
    endloop
  endfacet
  facet normal 0.000000e+00 0.000000e+00 0.000000e+00
    outer loop
      vertex 2.300000e+00 0.000000e+00 2.500000e+00
      vertex 2.028065e+00 8.369297e-01 2.500000e+00
      vertex 1.588065e+00 5.172510e-01 2.500000e+00
    endloop
  endfacet
  facet normal 0.000000e+00 0.000000e+00 0.000000e+00
    outer loop
      vertex 1.588065e+00 5.172510e-01 0.000000e+00
      vertex 1.420000e+00 1.077689e-16 0.000000e+00
      vertex 1.588065e+00 5.172510e-01 2.500000e+00
    endloop
  endfacet
  facet normal 0.000000e+00 0.000000e+00 0.000000e+00
    outer loop
      vertex 1.588065e+00 5.172510e-01 2.500000e+00
      vertex 1.420000e+00 1.077689e-16 0.000000e+00
      vertex 1.420000e+00 1.077689e-16 2.500000e+00
    endloop
  endfacet
  facet normal 0.000000e+00 0.000000e+00 0.000000e+00
    outer loop
      vertex 2.300000e+00 0.000000e+00 0.000000e+00
      vertex 1.420000e+00 1.077689e-16 0.000000e+00
      vertex 1.588065e+00 5.172510e-01 0.000000e+00
    endloop
  endfacet
  facet normal 0.000000e+00 0.000000e+00 0.000000e+00
    outer loop
      vertex 2.300000e+00 0.000000e+00 2.500000e+00
      vertex 1.588065e+00 5.172510e-01 2.500000e+00
      vertex 1.420000e+00 1.077689e-16 2.500000e+00
    endloop
  endfacet
  facet normal 0.000000e+00 0.000000e+00 0.000000e+00
    outer loop
      vertex 1.420000e+00 1.077689e-16 0.000000e+00
      vertex 1.588065e+00 -5.172510e-01 0.000000e+00
      vertex 1.420000e+00 1.077689e-16 2.500000e+00
    endloop
  endfacet
  facet normal 0.000000e+00 0.000000e+00 0.000000e+00
    outer loop
      vertex 1.420000e+00 1.077689e-16 2.500000e+00
      vertex 1.588065e+00 -5.172510e-01 0.000000e+00
      vertex 1.588065e+00 -5.172510e-01 2.500000e+00
    endloop
  endfacet
  facet normal 0.000000e+00 0.000000e+00 0.000000e+00
    outer loop
      vertex 2.300000e+00 0.000000e+00 0.000000e+00
      vertex 1.588065e+00 -5.172510e-01 0.000000e+00
      vertex 1.420000e+00 1.077689e-16 0.000000e+00
    endloop
  endfacet
  facet normal 0.000000e+00 0.000000e+00 0.000000e+00
    outer loop
      vertex 2.300000e+00 0.000000e+00 2.500000e+00
      vertex 1.420000e+00 1.077689e-16 2.500000e+00
      vertex 1.588065e+00 -5.172510e-01 2.500000e+00
    endloop
  endfacet
  facet normal 0.000000e+00 0.000000e+00 0.000000e+00
    outer loop
      vertex 1.588065e+00 -5.172510e-01 0.000000e+00
      vertex 2.028065e+00 -8.369297e-01 0.000000e+00
      vertex 1.588065e+00 -5.172510e-01 2.500000e+00
    endloop
  endfacet
  facet normal 0.000000e+00 0.000000e+00 0.000000e+00
    outer loop
      vertex 1.588065e+00 -5.172510e-01 2.500000e+00
      vertex 2.028065e+00 -8.369297e-01 0.000000e+00
      vertex 2.028065e+00 -8.369297e-01 2.500000e+00
    endloop
  endfacet
  facet normal 0.000000e+00 0.000000e+00 0.000000e+00
    outer loop
      vertex 2.300000e+00 0.000000e+00 0.000000e+00
      vertex 2.028065e+00 -8.369297e-01 0.000000e+00
      vertex 1.588065e+00 -5.172510e-01 0.000000e+00
    endloop
  endfacet
  facet normal 0.000000e+00 0.000000e+00 0.000000e+00
    outer loop
      vertex 2.300000e+00 0.000000e+00 2.500000e+00
      vertex 1.588065e+00 -5.172510e-01 2.500000e+00
      vertex 2.028065e+00 -8.369297e-01 2.500000e+00
    endloop
  endfacet
  facet normal 0.000000e+00 0.000000e+00 0.000000e+00
    outer loop
      vertex 2.028065e+00 -8.369297e-01 0.000000e+00
      vertex 2.571935e+00 -8.369297e-01 0.000000e+00
      vertex 2.028065e+00 -8.369297e-01 2.500000e+00
    endloop
  endfacet
  facet normal 0.000000e+00 0.000000e+00 0.000000e+00
    outer loop
      vertex 2.028065e+00 -8.369297e-01 2.500000e+00
      vertex 2.571935e+00 -8.369297e-01 0.000000e+00
      vertex 2.571935e+00 -8.369297e-01 2.500000e+00
    endloop
  endfacet
  facet normal 0.000000e+00 0.000000e+00 0.000000e+00
    outer loop
      vertex 2.300000e+00 0.000000e+00 0.000000e+00
      vertex 2.571935e+00 -8.369297e-01 0.000000e+00
      vertex 2.028065e+00 -8.369297e-01 0.000000e+00
    endloop
  endfacet
  facet normal 0.000000e+00 0.000000e+00 0.000000e+00
    outer loop
      vertex 2.300000e+00 0.000000e+00 2.500000e+00
      vertex 2.028065e+00 -8.369297e-01 2.500000e+00
      vertex 2.571935e+00 -8.369297e-01 2.500000e+00
    endloop
  endfacet
  facet normal 0.000000e+00 0.000000e+00 0.000000e+00
    outer loop
      vertex 2.571935e+00 -8.369297e-01 0.000000e+00
      vertex 3.011935e+00 -5.172510e-01 0.000000e+00
      vertex 2.571935e+00 -8.369297e-01 2.500000e+00
    endloop
  endfacet
  facet normal 0.000000e+00 0.000000e+00 0.000000e+00
    outer loop
      vertex 2.571935e+00 -8.369297e-01 2.500000e+00
      vertex 3.011935e+00 -5.172510e-01 0.000000e+00
      vertex 3.011935e+00 -5.172510e-01 2.500000e+00
    endloop
  endfacet
  facet normal 0.000000e+00 0.000000e+00 0.000000e+00
    outer loop
      vertex 2.300000e+00 0.000000e+00 0.000000e+00
      vertex 3.011935e+00 -5.172510e-01 0.000000e+00
      vertex 2.571935e+00 -8.369297e-01 0.000000e+00
    endloop
  endfacet
  facet normal 0.000000e+00 0.000000e+00 0.000000e+00
    outer loop
      vertex 2.300000e+00 0.000000e+00 2.500000e+00
      vertex 2.571935e+00 -8.369297e-01 2.500000e+00
      vertex 3.011935e+00 -5.172510e-01 2.500000e+00
    endloop
  endfacet
  facet normal 0.000000e+00 0.000000e+00 0.000000e+00
    outer loop
      vertex 3.011935e+00 -5.172510e-01 0.000000e+00
      vertex 3.180000e+00 0.000000e+00 0.000000e+00
      vertex 3.011935e+00 -5.172510e-01 2.500000e+00
    endloop
  endfacet
  facet normal 0.000000e+00 0.000000e+00 0.000000e+00
    outer loop
      vertex 3.011935e+00 -5.172510e-01 2.500000e+00
      vertex 3.180000e+00 0.000000e+00 0.000000e+00
      vertex 3.180000e+00 0.000000e+00 2.500000e+00
    endloop
  endfacet
  facet normal 0.000000e+00 0.000000e+00 0.000000e+00
    outer loop
      vertex 2.300000e+00 0.000000e+00 0.000000e+00
      vertex 3.180000e+00 0.000000e+00 0.000000e+00
      vertex 3.011935e+00 -5.172510e-01 0.000000e+00
    endloop
  endfacet
  facet normal 0.000000e+00 0.000000e+00 0.000000e+00
    outer loop
      vertex 2.300000e+00 0.000000e+00 2.500000e+00
      vertex 3.011935e+00 -5.172510e-01 2.500000e+00
      vertex 3.180000e+00 0.000000e+00 2.500000e+00
    endloop
  endfacet
endsolid solidlens
