solid solidlens
  facet normal 0.000000e+00 0.000000e+00 0.000000e+00
    outer loop
      vertex 1.150000e+00 -1.000000e+00 0.000000e+00
      vertex 3.150000e+00 1.000000e+00 0.000000e+00
      vertex 3.150000e+00 -1.000000e+00 0.000000e+00
    endloop
  endfacet
  facet normal 0.000000e+00 0.000000e+00 0.000000e+00
    outer loop
      vertex 1.150000e+00 -1.000000e+00 0.000000e+00
      vertex 1.150000e+00 1.000000e+00 0.000000e+00
      vertex 3.150000e+00 1.000000e+00 0.000000e+00
    endloop
  endfacet
  facet normal 0.000000e+00 0.000000e+00 0.000000e+00
    outer loop
      vertex 1.150000e+00 -1.000000e+00 2.000000e+00
      vertex 3.150000e+00 -1.000000e+00 2.000000e+00
      vertex 3.150000e+00 1.000000e+00 2.000000e+00
    endloop
  endfacet
  facet normal 0.000000e+00 0.000000e+00 0.000000e+00
    outer loop
      vertex 1.150000e+00 -1.000000e+00 2.000000e+00
      vertex 3.150000e+00 1.000000e+00 2.000000e+00
      vertex 1.150000e+00 1.000000e+00 2.000000e+00
    endloop
  endfacet
  facet normal 0.000000e+00 0.000000e+00 0.000000e+00
    outer loop
      vertex 1.150000e+00 -1.000000e+00 0.000000e+00
      vertex 3.150000e+00 -1.000000e+00 0.000000e+00
      vertex 3.150000e+00 -1.000000e+00 2.000000e+00
    endloop
  endfacet
  facet normal 0.000000e+00 0.000000e+00 0.000000e+00
    outer loop
      vertex 1.150000e+00 -1.000000e+00 0.000000e+00
      vertex 3.150000e+00 -1.000000e+00 2.000000e+00
      vertex 1.150000e+00 -1.000000e+00 2.000000e+00
    endloop
  endfacet
  facet normal 0.000000e+00 0.000000e+00 0.000000e+00
    outer loop
      vertex 3.150000e+00 -1.000000e+00 0.000000e+00
      vertex 3.150000e+00 1.000000e+00 0.000000e+00
      vertex 3.150000e+00 1.000000e+00 2.000000e+00
    endloop
  endfacet
  facet normal 0.000000e+00 0.000000e+00 0.000000e+00
    outer loop
      vertex 3.150000e+00 -1.000000e+00 0.000000e+00
      vertex 3.150000e+00 1.000000e+00 2.000000e+00
      vertex 3.150000e+00 -1.000000e+00 2.000000e+00
    endloop
  endfacet
  facet normal 0.000000e+00 0.000000e+00 0.000000e+00
    outer loop
      vertex 3.150000e+00 1.000000e+00 0.000000e+00
      vertex 1.150000e+00 1.000000e+00 0.000000e+00
      vertex 1.150000e+00 1.000000e+00 2.000000e+00
    endloop
  endfacet
  facet normal 0.000000e+00 0.000000e+00 0.000000e+00
    outer loop
      vertex 3.150000e+00 1.000000e+00 0.000000e+00
      vertex 1.150000e+00 1.000000e+00 2.000000e+00
      vertex 3.150000e+00 1.000000e+00 2.000000e+00
    endloop
  endfacet
  facet normal 0.000000e+00 0.000000e+00 0.000000e+00
    outer loop
      vertex 1.150000e+00 1.000000e+00 0.000000e+00
      vertex 1.150000e+00 -1.000000e+00 0.000000e+00
      vertex 1.150000e+00 -1.000000e+00 2.000000e+00
    endloop
  endfacet
  facet normal 0.000000e+00 0.000000e+00 0.000000e+00
    outer loop
      vertex 1.150000e+00 1.000000e+00 0.000000e+00
      vertex 1.150000e+00 -1.000000e+00 2.000000e+00
      vertex 1.150000e+00 1.000000e+00 2.000000e+00
    endloop
  endfacet
endsolid solidlens
